<?xml version="1.0" standalone="yes"?>
<svg width="657" height="603">
<path style="fill:#000000; stroke:none;" d="M0 0L0 603L657 603L657 0L0 0z"/>
<path style="fill:#c8c8c8; stroke:none;" d="M381 366L383 370L381 366z"/>
<path style="fill:#ffffff; stroke:none;" d="M383 369C384.247 376.852 390.628 381.628 396 387C404.627 395.627 412.71 404.797 420.718 414C440.491 436.724 464.92 457.467 482.362 482C487.176 488.771 488.476 497.638 492.259 505C497.623 515.438 505.368 524.331 513.169 533C523.477 544.454 544.796 580.343 561.96 566.471C589.841 543.937 553.271 522.661 537.83 506.015C530.547 498.163 521.202 489.999 511 486.348C502.054 483.146 488.438 482.474 481.424 475.775C455.489 451.006 432.539 422.258 408.09 396C399.92 387.226 392.807 375.966 383 369z"/>
<path style="fill:#5b5b5b; stroke:none;" d="M384 369L385 370L384 369z"/>
<path style="fill:#9a9a9a; stroke:none;" d="M383 372L384 373L383 372z"/>
<path style="fill:#8b8b8b; stroke:none;" d="M390 376L391 377L390 376z"/>
<path style="fill:#656565; stroke:none;" d="M391 377L392 378L391 377z"/>
<path style="fill:#909090; stroke:none;" d="M398 385L399 386L398 385z"/>
<path style="fill:#6e6e6e; stroke:none;" d="M399 386L400 387L399 386z"/>
<path style="fill:#a2a2a2; stroke:none;" d="M405 393L406 394L405 393z"/>
<path style="fill:#8a8a8a; stroke:none;" d="M406 394L407 395L406 394z"/>
<path style="fill:#5d5d5d; stroke:none;" d="M404 395L405 396L404 395z"/>
<path style="fill:#949494; stroke:none;" d="M407 395L408 396L407 395z"/>
<path style="fill:#939393; stroke:none;" d="M405 396L406 397L405 396z"/>
<path style="fill:#737373; stroke:none;" d="M408 396L409 397L408 396z"/>
<path style="fill:#565656; stroke:none;" d="M409 397L410 398L409 397z"/>
<path style="fill:#5a5a5a; stroke:none;" d="M412 404L413 405L412 404z"/>
<path style="fill:#7f7f7f; stroke:none;" d="M413 405L414 406L413 405z"/>
<path style="fill:#a7a7a7; stroke:none;" d="M414 406L415 407L414 406z"/>
<path style="fill:#a2a2a2; stroke:none;" d="M417 406L418 407L417 406z"/>
<path style="fill:#848484; stroke:none;" d="M418 407L419 408L418 407z"/>
<path style="fill:#6a6a6a; stroke:none;" d="M419 408L420 409L419 408z"/>
<path style="fill:#5d5d5d; stroke:none;" d="M420 413L421 414L420 413z"/>
<path style="fill:#828282; stroke:none;" d="M421 414L422 415L421 414z"/>
<path style="fill:#a6a6a6; stroke:none;" d="M428 418L429 419L428 418z"/>
<path style="fill:#8b8b8b; stroke:none;" d="M429 419L430 420L429 419z"/>
<path style="fill:#6f6f6f; stroke:none;" d="M430 420L431 421L430 420z"/>
<path style="fill:#585858; stroke:none;" d="M431 421L432 422L431 421z"/>
<path style="fill:#656565; stroke:none;" d="M429 423L430 424L429 423z"/>
<path style="fill:#838383; stroke:none;" d="M430 424L431 425L430 424z"/>
<path style="fill:#a7a7a7; stroke:none;" d="M431 425L432 426L431 425z"/>
<path style="fill:#9e9e9e; stroke:none;" d="M440 431L441 432L440 431z"/>
<path style="fill:#828282; stroke:none;" d="M441 432L442 433L441 432z"/>
<path style="fill:#686868; stroke:none;" d="M442 433L443 434L442 433z"/>
<path style="fill:#636363; stroke:none;" d="M439 434L440 435L439 434z"/>
<path style="fill:#818181; stroke:none;" d="M440 435L441 436L440 435z"/>
<path style="fill:#a0a0a0; stroke:none;" d="M441 436L442 437L441 436z"/>
<path style="fill:#8e8e8e; stroke:none;" d="M452 444L453 445L452 444z"/>
<path style="fill:#5a5a5a; stroke:none;" d="M449 445L450 446L449 445z"/>
<path style="fill:#6d6d6d; stroke:none;" d="M453 445L454 446L453 445z"/>
<path style="fill:#767676; stroke:none;" d="M450 446L451 447L450 446z"/>
<path style="fill:#939393; stroke:none;" d="M451 447L452 448L451 447z"/>
<path style="fill:#767676; stroke:none;" d="M461 454L462 455L461 454z"/>
<path style="fill:#5c5c5c; stroke:none;" d="M462 455L463 456L462 455z"/>
<path style="fill:#5f5f5f; stroke:none;" d="M461 458L462 459L461 458z"/>
<path style="fill:#737373; stroke:none;" d="M462 459L463 460L462 459z"/>
<path style="fill:#929292; stroke:none;" d="M463 460L464 461L463 460z"/>
<path style="fill:#8c8c8c; stroke:none;" d="M471 465L472 466L471 465z"/>
<path style="fill:#6f6f6f; stroke:none;" d="M472 466L473 467L472 466z"/>
<path style="fill:#595959; stroke:none;" d="M473 467L474 468L473 467z"/>
<path style="fill:#5c5c5c; stroke:none;" d="M473 471L474 472L473 471z"/>
<path style="fill:#8f8f8f; stroke:none;" d="M474 472L475 473L474 472z"/>
<path style="fill:#5d5d5d; stroke:none;" d="M481 476L482 477L481 476z"/>
<path style="fill:#686868; stroke:none;" d="M482 477L483 478L482 477z"/>
<path style="fill:#adadad; stroke:none;" d="M487 479L487 480L490 480L487 479z"/>
<path style="fill:#5f5f5f; stroke:none;" d="M482 481L483 482L482 481z"/>
<path style="fill:#6e6e6e; stroke:none;" d="M494 481L495 482L494 481z"/>
<path style="fill:#838383; stroke:none;" d="M497 482L498 483L497 482z"/>
<path style="fill:#858585; stroke:none;" d="M501 483L502 484L501 483z"/>
<path style="fill:#878787; stroke:none;" d="M505 484L506 485L505 484z"/>
<path style="fill:#9f9f9f; stroke:none;" d="M508 485L509 486L508 485z"/>
<path style="fill:#858585; stroke:none;" d="M511 486L512 487L511 486z"/>
<path style="fill:#606060; stroke:none;" d="M485 487L486 488L485 487z"/>
<path style="fill:#a2a2a2; stroke:none;" d="M517 489L518 490L517 489z"/>
<path style="fill:#a8a8a8; stroke:none;" d="M523 493L524 494L523 493z"/>
<path style="fill:#616161; stroke:none;" d="M488 496L489 497L488 496z"/>
<path style="fill:#626262; stroke:none;" d="M528 497L529 498L528 497z"/>
<path style="fill:#7e7e7e; stroke:none;" d="M529 498L530 499L529 498z"/>
<path style="fill:#979797; stroke:none;" d="M530 499L531 500L530 499z"/>
<path style="fill:#a2a2a2; stroke:none;" d="M531 500L532 501L531 500z"/>
<path style="fill:#7a7a7a; stroke:none;" d="M490 501L491 502L490 501z"/>
<path style="fill:#242424; stroke:none;" d="M506 502L507 503L506 502z"/>
<path style="fill:#838383; stroke:none;" d="M507 502L508 503L507 502z"/>
<path style="fill:#7a7a7a; stroke:none;" d="M491 503L492 504L491 503z"/>
<path style="fill:#000000; stroke:none;" d="M507 503C509.425 508.2 513.955 511.738 517.714 516C526.011 525.406 536.541 539.656 548 545L549 544C546.21 538.017 540.623 533.623 536 529C527.43 520.43 518.106 508.178 507 503z"/>
<path style="fill:#5c5c5c; stroke:none;" d="M492 505L493 506L492 505z"/>
<path style="fill:#848484; stroke:none;" d="M515 509L516 510L515 509z"/>
<path style="fill:#a6a6a6; stroke:none;" d="M540 509L541 510L540 509z"/>
<path style="fill:#898989; stroke:none;" d="M495 510L496 511L495 510z"/>
<path style="fill:#616161; stroke:none;" d="M516 510L517 511L516 510z"/>
<path style="fill:#989898; stroke:none;" d="M541 510L542 511L541 510z"/>
<path style="fill:#919191; stroke:none;" d="M542 511L543 512L542 511z"/>
<path style="fill:#a9a9a9; stroke:none;" d="M514 512L515 513L514 512z"/>
<path style="fill:#8b8b8b; stroke:none;" d="M543 512L544 513L543 512z"/>
<path style="fill:#a7a7a7; stroke:none;" d="M497 513L498 514L497 513z"/>
<path style="fill:#a2a2a2; stroke:none;" d="M515 513L516 514L515 513z"/>
<path style="fill:#848484; stroke:none;" d="M544 513L545 514L544 513z"/>
<path style="fill:#909090; stroke:none;" d="M516 514L517 515L516 514z"/>
<path style="fill:#808080; stroke:none;" d="M545 514L546 515L545 514z"/>
<path style="fill:#737373; stroke:none;" d="M517 515L518 516L517 515z"/>
<path style="fill:#838383; stroke:none;" d="M546 515L547 516L546 515z"/>
<path style="fill:#969696; stroke:none;" d="M499 516L500 517L499 516z"/>
<path style="fill:#626262; stroke:none;" d="M518 516L519 517L518 516z"/>
<path style="fill:#898989; stroke:none;" d="M547 516L548 517L547 516z"/>
<path style="fill:#8f8f8f; stroke:none;" d="M548 517L549 518L548 517z"/>
<path style="fill:#969696; stroke:none;" d="M549 518L550 519L549 518z"/>
<path style="fill:#9c9c9c; stroke:none;" d="M550 519L551 520L550 519z"/>
<path style="fill:#696969; stroke:none;" d="M502 520L503 521L502 520z"/>
<path style="fill:#a3a3a3; stroke:none;" d="M551 520L552 521L551 520z"/>
<path style="fill:#8f8f8f; stroke:none;" d="M503 521L504 522L503 521z"/>
<path style="fill:#a9a9a9; stroke:none;" d="M552 521L553 522L552 521z"/>
<path style="fill:#797979; stroke:none;" d="M509 528L510 529L509 528z"/>
<path style="fill:#a8a8a8; stroke:none;" d="M510 529L511 530L510 529z"/>
<path style="fill:#686868; stroke:none;" d="M518 538L519 539L518 538z"/>
<path style="fill:#8e8e8e; stroke:none;" d="M519 539L520 540L519 539z"/>
<path style="fill:#979797; stroke:none;" d="M572 541L573 542L572 541z"/>
<path style="fill:#5d5d5d; stroke:none;" d="M573 542L574 543L573 542z"/>
<path style="fill:#565656; stroke:none;" d="M548 544L549 545L548 544z"/>
<path style="fill:#585858; stroke:none;" d="M526 547L527 548L526 547z"/>
<path style="fill:#959595; stroke:none;" d="M573 547L574 548L573 547z"/>
<path style="fill:#767676; stroke:none;" d="M527 548L528 549L527 548z"/>
<path style="fill:#959595; stroke:none;" d="M528 549L529 550L528 549z"/>
<path style="fill:#5c5c5c; stroke:none;" d="M571 553L572 554L571 553z"/>
<path style="fill:#a6a6a6; stroke:none;" d="M568 558L569 559L568 558z"/>
<path style="fill:#6e6e6e; stroke:none;" d="M537 559L538 560L537 559z"/>
<path style="fill:#8e8e8e; stroke:none;" d="M538 560L539 561L538 560z"/>
<path style="fill:#606060; stroke:none;" d="M566 561L567 562L566 561z"/>
<path style="fill:#8b8b8b; stroke:none;" d="M560 567L561 568L560 567z"/>
<path style="fill:#666666; stroke:none;" d="M557 569L558 570L557 569z"/>
</svg>
